<svg xmlns="http://www.w3.org/2000/svg" viewBox="0 0 512 512" width="512" height="512">
  <defs>
    <linearGradient id="spg" x1="0.18" y1="0.02" x2="0.82" y2="1">
      <stop offset="0" stop-color="#5a78fb"/>
      <stop offset="0.5" stop-color="#3f8ef1"/>
      <stop offset="1" stop-color="#26c7dd"/>
    </linearGradient>
  </defs>
  <rect width="512" height="512" rx="118" fill="#ffffff"/>
  <g transform="translate(54 54) scale(0.8)">
    <g fill="url(#spg)">
      <path fill-rule="evenodd" d="M70 262a158 158 0 1 0 316 0a158 158 0 1 0-316 0ZM134 262a94 94 0 1 1 188 0a94 94 0 1 1-188 0Z"/>
      <path d="M150 348Q96 432 112 452Q152 438 206 372Z"/>
    </g>
    <g stroke="url(#spg)" stroke-width="22" stroke-linecap="round" fill="none">
      <path d="M398 92 414 54"/>
      <path d="M432 148 472 118"/>
      <path d="M434 200 480 196"/>
    </g>
  </g>
</svg>
